<svg width="23" height="23" viewBox="0 0 23 23" fill="none" xmlns="http://www.w3.org/2000/svg">
<path d="M0.484577 20.1918C0.17606 20.5003 0.00273735 20.9187 0.00273735 21.355C0.00273736 21.7913 0.17606 22.2097 0.484577 22.5182C0.793093 22.8267 1.21153 23 1.64784 23C2.08415 23 2.50259 22.8267 2.8111 22.5182L11.5 13.8271L20.1916 22.5155C20.5001 22.824 20.9186 22.9973 21.3549 22.9973C21.7912 22.9973 22.2096 22.824 22.5182 22.5155C22.8267 22.207 23 21.7885 23 21.3523C23 20.916 22.8267 20.4976 22.5182 20.1891L13.8265 11.5007L22.5154 2.80957C22.8239 2.50107 22.9973 2.08266 22.9973 1.64637C22.9973 1.21009 22.8239 0.791678 22.5154 0.483179C22.2069 0.174681 21.7885 0.00136824 21.3522 0.00136823C20.9159 0.00136823 20.4974 0.174681 20.1889 0.483179L11.5 9.1743L2.80837 0.481811C2.49985 0.173312 2.08141 -7.26847e-09 1.6451 0C1.2088 7.26847e-09 0.790358 0.173312 0.481841 0.481811C0.173324 0.790309 1.77218e-06 1.20872 1.76491e-06 1.64501C1.75764e-06 2.08129 0.173324 2.4997 0.481841 2.8082L9.17347 11.5007L0.484577 20.1918Z" fill="#9B51E0"/>
</svg>
